HIERARCHY
ROOT Pelvis
{
	OFFSET 0.000000 0.000000 0.000000
	CHANNELS 6 Xposition Yposition Zposition Xrotation Yrotation Zrotation
	JOINT LeftUpLeg_virtual
	{
		OFFSET 0.000000 0.000000 0.000000
		CHANNELS 3 Xrotation Yrotation Zrotation
		JOINT LeftUpLeg
		{
			OFFSET 18.735201 -5.666702 -4.541200
			CHANNELS 3 Xrotation Yrotation Zrotation
			JOINT LeftLeg
			{
				OFFSET -0.021200 -31.938179 0.493100
				CHANNELS 3 Xrotation Yrotation Zrotation
				JOINT LeftFoot
				{
					OFFSET 0.021200 -31.938179 -4.336299
					CHANNELS 3 Xrotation Yrotation Zrotation
					JOINT LeftToeBase
					{
						OFFSET 0.943001 -26.722000 15.023500
						CHANNELS 3 Xrotation Yrotation Zrotation
						End Site
						{
							OFFSET 0 0 0
						}
					}
				}
			}
		}
	}
	JOINT RightUpLeg_virtual
	{
		OFFSET 0.000000 0.000000 0.000000
		CHANNELS 3 Xrotation Yrotation Zrotation
		JOINT RightUpLeg
		{
			OFFSET -18.735201 -5.666702 -4.541200
			CHANNELS 3 Xrotation Yrotation Zrotation
			JOINT RightLeg
			{
				OFFSET 0.018946 -31.938133 0.493100
				CHANNELS 3 Xrotation Yrotation Zrotation
				JOINT RightFoot
				{
					OFFSET -0.018946 -31.938126 -4.336299
					CHANNELS 3 Xrotation Yrotation Zrotation
					JOINT RightToeBase
					{
						OFFSET -0.943001 -26.722004 15.023500
						CHANNELS 3 Xrotation Yrotation Zrotation
						End Site
						{
							OFFSET 0 0 0
						}
					}
				}
			}
		}
	}
	JOINT Hips_virtual
	{
		OFFSET 0.000000 0.000000 0.000000
		CHANNELS 3 Xrotation Yrotation Zrotation
		JOINT Hips
		{
			OFFSET -0.000000 -0.000000 -0.000000
			CHANNELS 3 Xrotation Yrotation Zrotation
			JOINT Spine
			{
				OFFSET 0.000000 10.199997 -0.299500
				CHANNELS 3 Xrotation Yrotation Zrotation
				JOINT Spine1
				{
					OFFSET 0.000000 11.900002 -1.516600
					CHANNELS 3 Xrotation Yrotation Zrotation
					JOINT Spine2
					{
						OFFSET 0.000000 13.600006 -2.842500
						CHANNELS 3 Xrotation Yrotation Zrotation
						JOINT Neck_virtual
						{
							OFFSET 0.000000 0.000000 0.000000
							CHANNELS 3 Xrotation Yrotation Zrotation
							JOINT Neck
							{
								OFFSET 0.000000 9.624100 -2.890100
								CHANNELS 3 Xrotation Yrotation Zrotation
								JOINT Head
								{
									OFFSET 0.000000 14.068802 -1.351900
									CHANNELS 3 Xrotation Yrotation Zrotation
									End Site
									{
										OFFSET 0 0 0
									}
								}
							}
						}
						JOINT LeftShoulder_virtual
						{
							OFFSET 0.000000 0.000000 0.000000
							CHANNELS 3 Xrotation Yrotation Zrotation
							JOINT LeftShoulder
							{
								OFFSET 15.263000 10.923401 -0.547700
								CHANNELS 3 Xrotation Yrotation Zrotation
								JOINT LeftArm
								{
									OFFSET 25.438599 -2.830597 -13.032500
									CHANNELS 3 Xrotation Yrotation Zrotation
									JOINT LeftForeArm
									{
										OFFSET 29.960503 0.000000 0.000000
										CHANNELS 3 Xrotation Yrotation Zrotation
										JOINT LeftHand
										{
											OFFSET 27.849251 0.000000 0.000000
											CHANNELS 3 Xrotation Yrotation Zrotation
											End Site
											{
												OFFSET 0 0 0
											}
										}
									}
								}
							}
						}
						JOINT RightShoulder_virtual
						{
							OFFSET 0.000000 0.000000 0.000000
							CHANNELS 3 Xrotation Yrotation Zrotation
							JOINT RightShoulder
							{
								OFFSET -15.263000 10.923401 -0.547700
								CHANNELS 3 Xrotation Yrotation Zrotation
								JOINT RightArm
								{
									OFFSET -25.438599 -2.830597 -13.032500
									CHANNELS 3 Xrotation Yrotation Zrotation
									JOINT RightForeArm
									{
										OFFSET -29.960503 0.000000 0.000000
										CHANNELS 3 Xrotation Yrotation Zrotation
										JOINT RightHand
										{
											OFFSET -27.849251 0.000000 0.000000
											CHANNELS 3 Xrotation Yrotation Zrotation
											End Site
											{
												OFFSET 0 0 0
											}
										}
									}
								}
							}
						}
					}
				}
			}
		}
	}
}
MOTION
Frames: 11
Frame Time: 0.03333333
0.240844 84.498070 2.944487 0.000000 0.000000 0.000000 -14.105903 4.532477 -0.104806 -21.660442 -4.929051 16.758178 61.522253 -1.785243 0.174978 -24.860442 -0.322805 -14.605632 0.000000 0.000000 0.000000 -14.105903 4.532477 -0.104806 -13.958625 -8.105649 -18.417752 59.780766 1.435398 -0.212855 -30.094940 -5.209004 13.131238 0.000000 0.000000 0.000000 -14.105903 4.532477 -0.104806 -0.000001 0.000000 0.000000 20.019139 -0.089954 0.600771 6.967088 -0.338070 0.675294 0.000000 0.000000 0.000000 6.967315 -0.337864 0.674353 -2.448873 -0.257673 -0.077649 0.000000 0.000000 0.000000 6.967315 -0.337864 0.674353 3.082218 -9.945117 -6.811322 -13.959279 -7.908220 -60.295291 69.634339 -63.509121 71.597144 0.000000 0.000000 0.000000 6.967315 -0.337864 0.674353 8.709540 -2.418525 18.823136 -21.494472 12.934334 56.855499 76.344159 65.516991 -70.724587 0.000000 0.000000 0.000000 
0.262452 84.486801 2.939518 0.000000 0.000000 0.000000 -14.048049 4.577386 -0.129057 -21.799235 -4.907427 16.784292 61.588868 -1.920326 0.174773 -24.867098 -0.292205 -14.519198 0.000000 0.000000 0.000000 -14.048049 4.577386 -0.129057 -14.001854 -8.134763 -18.413307 59.763288 1.437016 -0.212745 -30.082875 -5.227138 13.146708 0.000000 0.000000 0.000000 -14.048049 4.577386 -0.129057 0.000000 0.000000 0.000000 20.019151 -0.090267 0.598880 6.967765 -0.333986 0.674075 0.000000 0.000000 0.000000 6.967983 -0.333704 0.672075 -2.466888 -0.260153 -0.080415 0.000000 0.000000 0.000000 6.967983 -0.333704 0.672075 3.081508 -9.932727 -6.899785 -13.772138 -8.303075 -59.856595 69.210498 -63.491205 71.193616 0.000000 0.000000 0.000000 6.967983 -0.333704 0.672075 8.739782 -2.465332 18.929304 -21.199620 13.256775 56.475576 76.164000 65.580348 -70.597450 0.000000 0.000000 0.000000 
0.310059 84.485794 2.969788 0.000000 0.000000 0.000000 -14.042865 4.678704 -0.119221 -21.843269 -4.952472 16.720832 61.636979 -1.952340 0.174851 -24.892652 -0.298304 -14.462553 0.000000 0.000000 0.000000 -14.042865 4.678704 -0.119221 -13.909291 -8.212176 -18.469161 59.694590 1.435379 -0.212037 -30.101026 -5.250629 13.202159 0.000000 0.000000 0.000000 -14.042865 4.678704 -0.119221 0.000001 0.000000 0.000000 20.021532 -0.091301 0.589846 6.977814 -0.325596 0.664433 0.000000 0.000000 0.000000 6.978044 -0.325379 0.661027 -2.522219 -0.270964 -0.082248 0.000000 0.000000 0.000000 6.978044 -0.325379 0.661027 3.089943 -9.968826 -6.840614 -13.142229 -9.459943 -58.568654 68.458556 -63.706240 70.544694 0.000000 0.000000 0.000000 6.978044 -0.325379 0.661027 8.761114 -2.565049 18.941638 -20.443543 13.957699 55.550782 76.088826 65.933810 -70.543000 0.000000 0.000000 0.000000 
0.360061 84.510796 3.041800 0.000000 0.000000 0.000000 -14.073179 4.848593 -0.085209 -21.782651 -5.069491 16.598664 61.606155 -1.926900 0.175147 -24.905421 -0.315209 -14.436745 0.000000 0.000000 0.000000 -14.073179 4.848593 -0.085209 -13.654002 -8.341512 -18.521448 59.525140 1.441261 -0.209739 -30.140293 -5.334543 13.258386 0.000000 0.000000 0.000000 -14.073179 4.848593 -0.085209 0.000000 0.000000 0.000000 20.021234 -0.077787 0.582268 6.979993 -0.290164 0.652439 0.000000 0.000000 0.000000 6.980283 -0.290652 0.647076 -2.529758 -0.299682 -0.082187 0.000000 0.000000 0.000000 6.980283 -0.290652 0.647076 3.065989 -10.097435 -6.449462 -11.567995 -11.730444 -55.979428 65.753179 -64.570457 67.823000 0.000000 0.000000 0.000000 6.980283 -0.290652 0.647076 8.764856 -2.748730 18.669180 -18.578792 14.943817 53.540685 75.831376 67.486845 -70.381684 0.000000 0.000000 0.000000 
0.406230 84.645172 3.141617 0.000000 0.000000 0.000000 -14.274746 5.114456 -0.058994 -21.405992 -5.219878 16.483567 61.305934 -1.918961 0.174086 -24.806789 -0.336284 -14.399738 0.000000 0.000000 0.000000 -14.274746 5.114456 -0.058994 -12.957029 -8.607157 -18.474236 58.969818 1.433740 -0.204666 -30.061544 -5.478300 13.295289 0.000000 0.000000 0.000000 -14.274746 5.114456 -0.058994 -0.000001 0.000000 0.000000 19.988458 -0.050693 0.589938 6.936910 -0.235937 0.669645 0.000000 0.000000 0.000000 6.937389 -0.235861 0.665620 -2.291983 -0.321894 -0.077426 0.000000 0.000000 0.000000 6.937389 -0.235861 0.665620 2.902706 -10.588568 -5.829103 -8.209357 -14.344545 -51.118150 60.161399 -67.419909 62.302472 0.000000 0.000000 0.000000 6.937389 -0.235861 0.665620 8.526236 -2.817777 17.544560 -14.887941 15.974353 49.852362 73.640047 71.996744 -68.447846 0.000000 0.000000 0.000000 
0.461584 84.922363 3.268427 0.000000 0.000000 0.000000 -14.669505 5.486180 -0.046926 -20.640799 -5.434250 16.349699 60.657004 -1.902225 0.171667 -24.560629 -0.337473 -14.348754 0.000000 0.000000 0.000000 -14.669505 5.486180 -0.046926 -11.731513 -9.039790 -18.306416 57.890580 1.420766 -0.194982 -29.791902 -5.686556 13.311980 0.000000 0.000000 0.000000 -14.669505 5.486180 -0.046926 0.000001 0.000000 0.000000 19.884342 -0.032820 0.609725 6.762317 -0.208084 0.726399 0.000000 0.000000 0.000000 6.762805 -0.207267 0.722387 -1.616471 -0.307514 -0.066406 0.000000 0.000000 0.000000 6.762805 -0.207267 0.722387 2.544758 -11.924330 -5.012376 -2.210822 -15.470080 -43.103152 47.070505 -73.606927 48.903007 0.000000 0.000000 0.000000 6.762805 -0.207267 0.722387 7.952832 -2.678386 15.451565 -8.812174 16.564505 44.063439 59.994025 80.820863 -55.277271 0.000000 0.000000 0.000000 
0.538720 85.317978 3.396774 0.000000 0.000000 0.000000 -15.342888 5.829165 0.071213 -19.367377 -5.554282 16.093285 59.633139 -1.876510 0.168109 -24.177061 -0.275210 -14.244228 0.000000 0.000000 0.000000 -15.342888 5.829165 0.071213 -10.080136 -9.493833 -18.203347 56.499745 1.404626 -0.181905 -29.376954 -5.864605 13.353233 0.000000 0.000000 0.000000 -15.342888 5.829165 0.071213 0.000000 0.000000 0.000000 19.739067 -0.068533 0.588781 6.523786 -0.266740 0.705519 0.000000 0.000000 0.000000 6.524141 -0.265467 0.701688 -0.394809 -0.235284 -0.045994 0.000000 0.000000 0.000000 6.524141 -0.265467 0.701688 2.323320 -14.299133 -2.361532 6.130123 -14.113476 -33.140781 11.653553 -80.877725 14.006829 0.000000 0.000000 0.000000 6.524141 -0.265467 0.701688 7.070592 -1.706413 12.722751 -0.042606 15.921714 36.053406 -31.250824 84.371025 33.933490 0.000000 0.000000 0.000000 
0.635569 85.754997 3.462587 0.000000 0.000000 0.000000 -16.117605 6.044490 0.212309 -17.930018 -5.532364 15.829295 58.469042 -1.840778 0.164246 -23.716138 -0.200094 -14.096054 0.000000 0.000000 0.000000 -16.117605 6.044490 0.212309 -8.403831 -9.862029 -18.129866 55.022119 1.390910 -0.167926 -28.811374 -5.972126 13.404994 0.000000 0.000000 0.000000 -16.117605 6.044490 0.212309 0.000002 0.000000 0.000000 19.613365 -0.115088 0.583233 6.323405 -0.359374 0.710414 0.000000 0.000000 0.000000 6.323558 -0.358358 0.704580 1.163805 -0.133254 -0.131041 0.000000 0.000000 0.000000 6.323558 -0.358358 0.704580 2.348033 -16.095870 -0.102431 14.210585 -11.452616 -22.185363 -41.636604 -81.910436 -37.410059 0.000000 0.000000 0.000000 6.323558 -0.358358 0.704580 6.015284 -0.457007 8.798363 6.243610 13.137240 28.857331 -60.331669 79.251511 59.538131 0.000000 0.000000 0.000000 
0.738924 86.111191 3.427103 0.000000 0.000000 0.000000 -16.309617 6.019100 0.333587 -17.200419 -5.296853 15.547179 57.371595 -1.809792 0.161210 -23.186424 -0.108888 -13.904507 0.000000 0.000000 0.000000 -16.309617 6.019100 0.333587 -7.736741 -9.906061 -18.152531 53.911393 1.344974 -0.157491 -28.182474 -5.993775 13.472131 0.000000 0.000000 0.000000 -16.309617 6.019100 0.333587 -0.000001 0.000000 0.000000 19.596591 -0.156216 0.598962 6.300502 -0.453083 0.738547 0.000000 0.000000 0.000000 6.300516 -0.449142 0.738290 2.732304 0.012068 -0.403083 0.000000 0.000000 0.000000 6.300516 -0.449142 0.738290 2.497442 -16.169465 2.638148 15.827015 -8.799871 -14.201475 -66.544163 -80.190089 -60.276146 0.000000 0.000000 0.000000 6.300516 -0.449142 0.738290 5.044802 0.429332 4.193591 5.301174 9.627129 24.706089 -63.079625 76.690204 61.272678 0.000000 0.000000 0.000000 
0.858168 86.243607 3.170065 0.000000 0.000000 0.000000 -16.213961 5.816468 0.437022 -17.272678 -4.983960 15.262239 56.894834 -1.790143 0.161485 -22.750566 -0.050729 -13.685298 0.000000 0.000000 0.000000 -16.213961 5.816468 0.437022 -8.125675 -9.704054 -18.407660 53.692595 1.406549 -0.153602 -27.701389 -5.906590 13.516504 0.000000 0.000000 0.000000 -16.213961 5.816468 0.437022 -0.000001 0.000000 0.000000 19.683255 -0.178922 0.649804 6.446122 -0.527410 0.786771 0.000000 0.000000 0.000000 6.446104 -0.523056 0.781551 4.195010 0.163294 -0.715933 0.000000 0.000000 0.000000 6.446104 -0.523056 0.781551 2.741047 -15.317094 5.103407 13.322174 -6.254837 -9.060210 -76.667589 -79.663324 -69.413041 0.000000 0.000000 0.000000 6.446104 -0.523056 0.781551 4.233657 0.674753 1.537595 -5.733655 7.868439 22.608129 -63.247948 75.903127 62.825193 0.000000 0.000000 0.000000 
0.999267 86.075111 2.690641 0.000000 0.000000 0.000000 -15.401064 5.546852 0.504082 -18.789418 -4.616530 14.995083 57.220757 -1.762420 0.166467 -22.404163 -0.182622 -13.448321 0.000000 0.000000 0.000000 -15.401064 5.546852 0.504082 -10.080141 -9.263546 -18.923982 54.533142 1.387695 -0.160762 -27.426339 -5.597234 13.642528 0.000000 0.000000 0.000000 -15.401064 5.546852 0.504082 0.000002 0.000000 0.000000 19.907806 -0.173553 0.743602 6.822255 -0.561092 0.849796 0.000000 0.000000 0.000000 6.822506 -0.556173 0.845185 5.559516 0.271811 -0.887354 0.000000 0.000000 0.000000 6.822506 -0.556173 0.845185 2.731960 -14.613748 5.473878 6.306150 -3.363042 -5.417889 -87.842209 -79.588110 -80.506128 0.000000 0.000000 0.000000 6.822506 -0.556173 0.845185 4.055958 0.572748 1.455997 -24.010956 8.214920 21.533216 -66.317469 75.301695 71.374671 0.000000 0.000000 0.000000 
